<svg xmlns="http://www.w3.org/2000/svg" viewBox="0 0 800 480">
  <defs>
    <linearGradient id="bg2" x1="0%" y1="0%" x2="100%" y2="0%">
      <stop offset="0%" stop-color="#0f172a"/>
      <stop offset="100%" stop-color="#1e293b"/>
    </linearGradient>
    <linearGradient id="accent" x1="0%" y1="0%" x2="100%" y2="100%">
      <stop offset="0%" stop-color="#7dd3fc"/>
      <stop offset="100%" stop-color="#a855f7"/>
    </linearGradient>
  </defs>
  <rect width="800" height="480" fill="url(#bg2)" rx="32"/>
  <rect x="70" y="80" width="660" height="320" rx="26" fill="#0b1224" opacity="0.85" stroke="#1f2937" stroke-width="2"/>
  <rect x="110" y="140" width="580" height="120" rx="18" fill="#111827" stroke="#1f2937"/>
  <rect x="110" y="290" width="280" height="60" rx="12" fill="#0ea5e9" opacity="0.65"/>
  <rect x="420" y="290" width="180" height="60" rx="12" fill="#a855f7" opacity="0.65"/>
  <circle cx="180" cy="200" r="36" fill="#111827" stroke="#38bdf8" stroke-width="6" opacity="0.9"/>
  <circle cx="240" cy="200" r="10" fill="#38bdf8"/>
  <rect x="300" y="170" width="300" height="18" rx="8" fill="#1f2937"/>
  <rect x="300" y="200" width="260" height="12" rx="6" fill="#1f2937" opacity="0.9"/>
  <rect x="300" y="226" width="200" height="12" rx="6" fill="#1f2937" opacity="0.9"/>
  <path d="M130 338 C210 260, 310 420, 400 318" fill="none" stroke="url(#accent)" stroke-width="8" stroke-linecap="round" opacity="0.9"/>
  <path d="M400 318 C470 246, 550 360, 630 280" fill="none" stroke="url(#accent)" stroke-width="8" stroke-linecap="round" opacity="0.9"/>
  <text x="100" y="118" font-family="'Segoe UI', sans-serif" font-weight="700" font-size="30" fill="#e2e8f0">SmoothTrack</text>
  <text x="300" y="156" font-family="'Segoe UI', sans-serif" font-size="16" fill="#cbd5e1">Head tracking that feels native on iOS.</text>
  <text x="120" y="360" font-family="'Segoe UI', sans-serif" font-size="18" fill="#e0f2fe">Wireless head-tracking curve</text>
  <text x="110" y="405" font-family="'Segoe UI', sans-serif" font-size="16" fill="#94a3b8">Built for simulators with ultra-low latency.</text>
</svg>
